<mxfile host="65bd71144e">
    <diagram id="orXAmYVh9-CZ3GWi7Xlr" name="Página-1">
        <mxGraphModel dx="1348" dy="669" grid="1" gridSize="10" guides="1" tooltips="1" connect="1" arrows="1" fold="1" page="1" pageScale="1" pageWidth="827" pageHeight="1169" background="#FFFFFF" math="0" shadow="0">
            <root>
                <mxCell id="0"/>
                <mxCell id="1" parent="0"/>
                <mxCell id="6" value="" style="edgeStyle=none;html=1;entryX=0.5;entryY=0;entryDx=0;entryDy=0;" parent="1" source="4" target="36" edge="1">
                    <mxGeometry relative="1" as="geometry">
                        <mxPoint x="130" y="120" as="targetPoint"/>
                    </mxGeometry>
                </mxCell>
                <mxCell id="4" value="1000-INICIO" style="rounded=1;whiteSpace=wrap;html=1;fillColor=#fff2cc;strokeColor=#d6b656;fontStyle=1;fontSize=14;gradientColor=#ffd966;" parent="1" vertex="1">
                    <mxGeometry x="70" y="40" width="120" height="40" as="geometry"/>
                </mxCell>
                <mxCell id="8" value="" style="edgeStyle=none;html=1;exitX=0.5;exitY=1;exitDx=0;exitDy=0;" parent="1" source="36" target="7" edge="1">
                    <mxGeometry relative="1" as="geometry">
                        <mxPoint x="130" y="160" as="sourcePoint"/>
                    </mxGeometry>
                </mxCell>
                <mxCell id="7" value="Existe" style="rhombus;whiteSpace=wrap;html=1;fontSize=14;rounded=0;fontStyle=0;" parent="1" vertex="1">
                    <mxGeometry x="70" y="180" width="120" height="50" as="geometry"/>
                </mxCell>
                <mxCell id="11" value="" style="endArrow=classic;html=1;exitX=0.5;exitY=1;exitDx=0;exitDy=0;" parent="1" source="7" target="38" edge="1">
                    <mxGeometry relative="1" as="geometry">
                        <mxPoint x="129.5" y="270" as="sourcePoint"/>
                        <mxPoint x="130" y="290" as="targetPoint"/>
                    </mxGeometry>
                </mxCell>
                <mxCell id="12" value="SI&amp;nbsp;" style="edgeLabel;resizable=0;html=1;;align=center;verticalAlign=middle;" parent="11" connectable="0" vertex="1">
                    <mxGeometry relative="1" as="geometry">
                        <mxPoint y="-8" as="offset"/>
                    </mxGeometry>
                </mxCell>
                <mxCell id="15" value="TIPDOC act&lt;div&gt;&amp;nbsp;&lt;span style=&quot;background-color: transparent;&quot;&gt;&lt;b&gt;=&amp;nbsp;&lt;/b&gt;&lt;/span&gt;&lt;div&gt;TIPDOC ant&lt;/div&gt;&lt;/div&gt;" style="rhombus;whiteSpace=wrap;html=1;" parent="1" vertex="1">
                    <mxGeometry x="240" y="249.5" width="140" height="90.5" as="geometry"/>
                </mxCell>
                <mxCell id="75" style="edgeStyle=none;html=1;entryX=0.5;entryY=0;entryDx=0;entryDy=0;" edge="1" parent="1" source="21" target="60">
                    <mxGeometry relative="1" as="geometry"/>
                </mxCell>
                <mxCell id="21" value="Corte de Contol" style="rounded=0;whiteSpace=wrap;html=1;fillColor=#dae8fc;strokeColor=#6c8ebf;gradientColor=#7ea6e0;" parent="1" vertex="1">
                    <mxGeometry x="460" y="280" width="120" height="30" as="geometry"/>
                </mxCell>
                <mxCell id="26" value="" style="endArrow=classic;html=1;exitX=1;exitY=0.5;exitDx=0;exitDy=0;entryX=0;entryY=0.5;entryDx=0;entryDy=0;" parent="1" source="15" target="21" edge="1">
                    <mxGeometry relative="1" as="geometry">
                        <mxPoint x="170" y="330" as="sourcePoint"/>
                        <mxPoint x="270" y="330" as="targetPoint"/>
                    </mxGeometry>
                </mxCell>
                <mxCell id="27" value="&amp;nbsp;NO&amp;nbsp;" style="edgeLabel;resizable=0;html=1;;align=center;verticalAlign=middle;" parent="26" connectable="0" vertex="1">
                    <mxGeometry relative="1" as="geometry"/>
                </mxCell>
                <mxCell id="28" value="" style="endArrow=classic;html=1;exitX=0.5;exitY=1;exitDx=0;exitDy=0;entryX=1;entryY=0.5;entryDx=0;entryDy=0;" parent="1" source="15" target="55" edge="1">
                    <mxGeometry relative="1" as="geometry">
                        <mxPoint x="170" y="380" as="sourcePoint"/>
                        <mxPoint x="310" y="440" as="targetPoint"/>
                        <Array as="points">
                            <mxPoint x="310" y="425"/>
                        </Array>
                    </mxGeometry>
                </mxCell>
                <mxCell id="29" value="SI" style="edgeLabel;resizable=0;html=1;;align=center;verticalAlign=middle;" parent="28" connectable="0" vertex="1">
                    <mxGeometry relative="1" as="geometry">
                        <mxPoint x="18" y="-45" as="offset"/>
                    </mxGeometry>
                </mxCell>
                <mxCell id="30" value="9999-FINAL" style="rounded=1;whiteSpace=wrap;html=1;fillColor=#fff2cc;strokeColor=#d6b656;fontStyle=1;gradientColor=#ffd966;" parent="1" vertex="1">
                    <mxGeometry x="640" y="105" width="100" height="40" as="geometry"/>
                </mxCell>
                <mxCell id="34" value="" style="endArrow=classic;html=1;entryX=0;entryY=0.5;entryDx=0;entryDy=0;exitX=1;exitY=0.5;exitDx=0;exitDy=0;" parent="1" source="7" target="48" edge="1">
                    <mxGeometry relative="1" as="geometry">
                        <mxPoint x="200" y="190" as="sourcePoint"/>
                        <mxPoint x="300" y="190" as="targetPoint"/>
                    </mxGeometry>
                </mxCell>
                <mxCell id="35" value="&amp;nbsp;NO&amp;nbsp;" style="edgeLabel;resizable=0;html=1;;align=center;verticalAlign=middle;" parent="34" connectable="0" vertex="1">
                    <mxGeometry relative="1" as="geometry"/>
                </mxCell>
                <mxCell id="36" value="Leer Registro" style="shape=parallelogram;perimeter=parallelogramPerimeter;whiteSpace=wrap;html=1;fixedSize=1;fillColor=#f8cecc;gradientColor=#ea6b66;strokeColor=#b85450;" parent="1" vertex="1">
                    <mxGeometry x="70" y="120" width="120" height="40" as="geometry"/>
                </mxCell>
                <mxCell id="38" value="1° Registro" style="rhombus;whiteSpace=wrap;html=1;" parent="1" vertex="1">
                    <mxGeometry x="74" y="270" width="112" height="50" as="geometry"/>
                </mxCell>
                <mxCell id="42" value="" style="endArrow=classic;html=1;exitX=0.5;exitY=1;exitDx=0;exitDy=0;entryX=0.5;entryY=0;entryDx=0;entryDy=0;" parent="1" source="38" target="54" edge="1">
                    <mxGeometry relative="1" as="geometry">
                        <mxPoint x="250" y="300" as="sourcePoint"/>
                        <mxPoint x="130" y="370" as="targetPoint"/>
                    </mxGeometry>
                </mxCell>
                <mxCell id="43" value="SI&amp;nbsp;" style="edgeLabel;resizable=0;html=1;;align=center;verticalAlign=middle;" parent="42" connectable="0" vertex="1">
                    <mxGeometry relative="1" as="geometry">
                        <mxPoint as="offset"/>
                    </mxGeometry>
                </mxCell>
                <mxCell id="46" value="" style="endArrow=classic;html=1;exitX=1;exitY=0.5;exitDx=0;exitDy=0;entryX=0;entryY=0.5;entryDx=0;entryDy=0;" parent="1" source="38" target="15" edge="1">
                    <mxGeometry relative="1" as="geometry">
                        <mxPoint x="190" y="279.5" as="sourcePoint"/>
                        <mxPoint x="270" y="279.5" as="targetPoint"/>
                    </mxGeometry>
                </mxCell>
                <mxCell id="47" value="&amp;nbsp;NO&amp;nbsp;" style="edgeLabel;resizable=0;html=1;;align=center;verticalAlign=middle;" parent="46" connectable="0" vertex="1">
                    <mxGeometry relative="1" as="geometry"/>
                </mxCell>
                <mxCell id="64" style="edgeStyle=none;html=1;entryX=0;entryY=0.5;entryDx=0;entryDy=0;" parent="1" source="48" target="66" edge="1">
                    <mxGeometry relative="1" as="geometry"/>
                </mxCell>
                <mxCell id="48" value="Corte de Contol" style="rounded=0;whiteSpace=wrap;html=1;fillColor=#dae8fc;strokeColor=#6c8ebf;gradientColor=#7ea6e0;" parent="1" vertex="1">
                    <mxGeometry x="240" y="190" width="110" height="30" as="geometry"/>
                </mxCell>
                <mxCell id="57" style="edgeStyle=none;html=1;entryX=0.5;entryY=0;entryDx=0;entryDy=0;" parent="1" source="54" target="55" edge="1">
                    <mxGeometry relative="1" as="geometry"/>
                </mxCell>
                <mxCell id="54" value="Setear TIPDOC ant" style="rounded=0;whiteSpace=wrap;html=1;fillColor=#f5f5f5;strokeColor=#666666;gradientColor=#b3b3b3;" parent="1" vertex="1">
                    <mxGeometry x="80" y="360" width="100" height="30" as="geometry"/>
                </mxCell>
                <mxCell id="55" value="&lt;div&gt;add 1 a CANT&lt;/div&gt;" style="rounded=0;whiteSpace=wrap;html=1;fillColor=#f5f5f5;strokeColor=#666666;gradientColor=#b3b3b3;" parent="1" vertex="1">
                    <mxGeometry x="80" y="410" width="100" height="30" as="geometry"/>
                </mxCell>
                <mxCell id="59" style="edgeStyle=none;html=1;exitX=0;exitY=0.5;exitDx=0;exitDy=0;entryX=0;entryY=0.5;entryDx=0;entryDy=0;" parent="1" source="55" target="36" edge="1">
                    <mxGeometry relative="1" as="geometry">
                        <mxPoint x="54" y="137.5" as="targetPoint"/>
                        <mxPoint x="76" y="475" as="sourcePoint"/>
                        <Array as="points">
                            <mxPoint x="40" y="425"/>
                            <mxPoint x="40" y="140"/>
                        </Array>
                    </mxGeometry>
                </mxCell>
                <mxCell id="73" style="edgeStyle=none;html=1;entryX=1;entryY=0.5;entryDx=0;entryDy=0;" parent="1" source="60" target="55" edge="1">
                    <mxGeometry relative="1" as="geometry">
                        <Array as="points">
                            <mxPoint x="520" y="425"/>
                        </Array>
                    </mxGeometry>
                </mxCell>
                <mxCell id="60" value="&lt;span style=&quot;color: rgb(0, 0, 0);&quot;&gt;Setear TIPDOC ant&lt;/span&gt;&lt;br&gt;&lt;div&gt;Cant = 0&lt;/div&gt;" style="rounded=0;whiteSpace=wrap;html=1;fillColor=#f5f5f5;strokeColor=#666666;gradientColor=#b3b3b3;" parent="1" vertex="1">
                    <mxGeometry x="461" y="340" width="120" height="50" as="geometry"/>
                </mxCell>
                <mxCell id="77" style="edgeStyle=none;html=1;entryX=0.374;entryY=1.007;entryDx=0;entryDy=0;entryPerimeter=0;" edge="1" parent="1" source="63" target="76">
                    <mxGeometry relative="1" as="geometry">
                        <mxPoint x="537" y="150" as="targetPoint"/>
                    </mxGeometry>
                </mxCell>
                <mxCell id="63" value="Mostrar Totales" style="rounded=0;whiteSpace=wrap;html=1;fillColor=#d5e8d4;gradientColor=#97d077;strokeColor=#82b366;" parent="1" vertex="1">
                    <mxGeometry x="480" y="190" width="100" height="30" as="geometry"/>
                </mxCell>
                <mxCell id="67" style="edgeStyle=none;html=1;entryX=0;entryY=0.5;entryDx=0;entryDy=0;" parent="1" source="66" target="63" edge="1">
                    <mxGeometry relative="1" as="geometry"/>
                </mxCell>
                <mxCell id="66" value="Acumular&lt;div&gt;Subtotales&lt;/div&gt;" style="rounded=0;whiteSpace=wrap;html=1;fillColor=#f5f5f5;strokeColor=#666666;gradientColor=#b3b3b3;" parent="1" vertex="1">
                    <mxGeometry x="380" y="190" width="81" height="30" as="geometry"/>
                </mxCell>
                <mxCell id="78" style="edgeStyle=none;html=1;entryX=0;entryY=0.5;entryDx=0;entryDy=0;" edge="1" parent="1" source="76" target="30">
                    <mxGeometry relative="1" as="geometry"/>
                </mxCell>
                <mxCell id="76" value="Imprimir archivo&lt;div&gt;de salida&lt;/div&gt;" style="shape=document;whiteSpace=wrap;html=1;boundedLbl=1;align=left;spacingLeft=10;fillColor=#d5e8d4;gradientColor=#97d077;strokeColor=#82b366;" vertex="1" parent="1">
                    <mxGeometry x="485" y="100" width="120" height="50" as="geometry"/>
                </mxCell>
            </root>
        </mxGraphModel>
    </diagram>
</mxfile>